<?xml version="1.0" encoding="utf-8"?>
<!-- Generator: Adobe Illustrator 22.0.0, SVG Export Plug-In . SVG Version: 6.00 Build 0)  -->
<svg version="1.1" id="Ebene_1" xmlns="http://www.w3.org/2000/svg" xmlns:xlink="http://www.w3.org/1999/xlink" x="0px" y="0px"
	 viewBox="0 0 100 100" style="enable-background:new 0 0 100 100;" xml:space="preserve">
<style type="text/css">
	.st0{fill:#FFFFFF;}
</style>
<path class="st0" d="M77.4,90H22c-6.6,0-12-5.4-12-12V22.7c0-6.6,5.4-12,12-12h55.3c6.6,0,12,5.4,12,12V78C89.4,84.6,84,90,77.4,90z
	"/>
<g>
	<path d="M14.2,50c0-1.5,0.2-3,0.7-4.3c0.5-1.4,1.1-2.6,2-3.6c0.9-1,1.9-1.9,3.1-2.5c1.2-0.6,2.6-0.9,4.2-0.9c1.6,0,3,0.3,4.2,0.9
		c1.2,0.6,2.3,1.4,3.1,2.5c0.9,1,1.5,2.2,2,3.6c0.5,1.4,0.7,2.8,0.7,4.3v0.7c0,1.5-0.2,3-0.7,4.3c-0.5,1.4-1.1,2.6-2,3.6
		c-0.9,1-1.9,1.8-3.1,2.4c-1.2,0.6-2.6,0.9-4.2,0.9s-3-0.3-4.2-0.9c-1.2-0.6-2.3-1.4-3.1-2.4c-0.9-1-1.5-2.2-2-3.6
		c-0.5-1.4-0.7-2.8-0.7-4.3V50z M16.7,50.7c0,1.2,0.2,2.3,0.5,3.4c0.3,1.1,0.8,2.1,1.5,2.9c0.6,0.9,1.4,1.5,2.4,2
		c0.9,0.5,2,0.8,3.2,0.8c1.2,0,2.3-0.3,3.2-0.8c0.9-0.5,1.7-1.2,2.3-2c0.6-0.9,1.1-1.8,1.4-2.9s0.5-2.3,0.5-3.4V50
		c0-1.2-0.2-2.3-0.5-3.4c-0.3-1.1-0.8-2.1-1.5-2.9c-0.6-0.9-1.4-1.5-2.4-2.1c-0.9-0.5-2-0.8-3.2-0.8c-1.2,0-2.3,0.3-3.2,0.8
		c-0.9,0.5-1.7,1.2-2.3,2.1c-0.6,0.9-1.1,1.8-1.4,2.9c-0.3,1.1-0.5,2.2-0.5,3.4V50.7z"/>
	<path d="M49.9,47.1l11-14.5h4.8L52.2,50l14.1,18.1h-4.7L50,53L38.4,68.1h-4.7L47.7,50L34.2,32.6h4.7L49.9,47.1z"/>
	<path d="M65.2,50c0-1.5,0.2-3,0.7-4.3c0.5-1.4,1.1-2.6,2-3.6c0.9-1,1.9-1.9,3.1-2.5c1.2-0.6,2.6-0.9,4.2-0.9c1.6,0,3,0.3,4.2,0.9
		c1.2,0.6,2.3,1.4,3.1,2.5c0.9,1,1.5,2.2,2,3.6c0.5,1.4,0.7,2.8,0.7,4.3v0.7c0,1.5-0.2,3-0.7,4.3c-0.5,1.4-1.1,2.6-2,3.6
		c-0.9,1-1.9,1.8-3.1,2.4c-1.2,0.6-2.6,0.9-4.2,0.9c-1.6,0-3-0.3-4.2-0.9c-1.2-0.6-2.3-1.4-3.1-2.4c-0.9-1-1.5-2.2-2-3.6
		c-0.5-1.4-0.7-2.8-0.7-4.3V50z M67.7,50.7c0,1.2,0.2,2.3,0.5,3.4c0.3,1.1,0.8,2.1,1.5,2.9c0.6,0.9,1.4,1.5,2.4,2
		c0.9,0.5,2,0.8,3.2,0.8c1.2,0,2.3-0.3,3.2-0.8c0.9-0.5,1.7-1.2,2.3-2c0.6-0.9,1.1-1.8,1.4-2.9c0.3-1.1,0.5-2.3,0.5-3.4V50
		c0-1.2-0.2-2.3-0.5-3.4c-0.3-1.1-0.8-2.1-1.5-2.9c-0.6-0.9-1.4-1.5-2.4-2.1c-0.9-0.5-2-0.8-3.2-0.8c-1.2,0-2.3,0.3-3.2,0.8
		c-0.9,0.5-1.7,1.2-2.3,2.1c-0.6,0.9-1.1,1.8-1.4,2.9c-0.3,1.1-0.5,2.2-0.5,3.4V50.7z"/>
</g>
</svg>
