<?xml version="1.0" encoding="utf-8"?>
<!-- Generator: Adobe Illustrator 22.0.0, SVG Export Plug-In . SVG Version: 6.00 Build 0)  -->
<svg version="1.1" id="Ebene_1" xmlns="http://www.w3.org/2000/svg" xmlns:xlink="http://www.w3.org/1999/xlink" x="0px" y="0px"
	 viewBox="0 0 100 100" style="enable-background:new 0 0 100 100;" xml:space="preserve">
<style type="text/css">
	.st0{fill:#EDA569;stroke:#000000;stroke-miterlimit:10;}
	.st1{fill:none;stroke:#000000;stroke-miterlimit:10;}
</style>
<path class="st0" d="M84.7,92H15.3c-4.5,0-8.1-3.6-8.1-8.1V14.6c0-4.5,3.6-8.1,8.1-8.1h69.4c4.5,0,8.1,3.6,8.1,8.1v69.4
	C92.8,88.4,89.1,92,84.7,92z"/>
<line class="st1" x1="7.9" y1="50" x2="92.1" y2="50"/>
<line class="st1" x1="7.3" y1="50" x2="92.8" y2="50"/>
<line class="st1" x1="50" y1="6.5" x2="50" y2="92"/>
<g>
	<path d="M15,25.1l3.2,4.8c0.8,1.2,1.5,2.4,2.3,3.6h0.1c0.7-1.3,1.5-2.5,2.2-3.7l3.1-4.7h4.4l-7.6,10.8l7.8,11.5h-4.6l-3.3-5
		c-0.9-1.3-1.6-2.5-2.4-3.9h-0.1c-0.7,1.3-1.5,2.5-2.3,3.9l-3.2,5h-4.5L18,36l-7.5-10.9H15z"/>
</g>
<g>
	<path d="M90,77.8c0,8.2-5.7,11.8-11.1,11.8c-6,0-10.7-4.4-10.7-11.5c0-7.5,4.9-11.8,11-11.8C85.7,66.4,90,71,90,77.8z M72.3,78
		c0,4.9,2.8,8.6,6.8,8.6c3.9,0,6.8-3.6,6.8-8.6c0-3.8-1.9-8.6-6.7-8.6C74.4,69.4,72.3,73.8,72.3,78z"/>
</g>
</svg>
